<?xml version="1.0" encoding="UTF-8" standalone="no"?>
<svg width="243px" height="304px" viewBox="0 0 243 304" version="1.1" xmlns="http://www.w3.org/2000/svg" xmlns:xlink="http://www.w3.org/1999/xlink" xmlns:sketch="http://www.bohemiancoding.com/sketch/ns">
    <g id="Page-1" stroke="none" stroke-width="1" fill="none" fill-rule="evenodd" sketch:type="MSPage">
        <g id="Logo" sketch:type="MSLayerGroup" transform="translate(-17.298701, 2.000000)">
            <polygon id="Polygon-1" stroke="#393E43" stroke-width="2" fill="#F5DC56" sketch:type="MSShapeGroup" points="138.798701 0 259.001903 75 259.001903 225 138.798701 300 18.5955 225 18.5955 75 "></polygon>
            <polygon id="Polygon-1-Copy" stroke="#393E43" stroke-width="6" fill="#FFFFFF" sketch:type="MSShapeGroup" points="138.798701 10.7142857 250.56659 80.3571429 250.56659 219.642857 138.798701 289.285714 27.0308123 219.642857 27.0308123 80.3571429 "></polygon>
            <g id="Group" transform="translate(43.831169, 56.006494)" fill="#393E43">
                <g id="Shape-Copy-3-+-Shape-Copy-+-Shape-Copy-2" transform="translate(47.099513, 0.000000)" sketch:type="MSShapeGroup">
                    <path d="M0.655441562,31.3317955 L0.655441562,0 L14.1456745,0 L14.1456745,15.6649578 L27.6342888,15.6649578 L27.6342888,0 L41.122903,0 L41.122903,15.6649578 L54.613136,15.6649578 L54.613136,0 L68.1017502,0 L68.1017502,15.6649578 L81.5919832,15.6649578 L81.5919832,0 L95.0805974,0 L95.0805974,31.3317955 L81.5919832,46.9967532 L81.5919832,187.987013 L14.1456745,187.987013 L14.1456745,46.9967532 L0.655441562,31.3317955 Z M67.140368,155.357143 L56.3979437,119.994264 C61.7585498,116.998052 65.3888528,111.274567 65.3888528,104.695779 C65.3888528,95.0192641 57.5449134,87.1753247 47.8683983,87.1753247 C38.1933983,87.1753247 30.3479437,95.0192641 30.3479437,104.695779 C30.3479437,111.274567 33.9782468,116.998052 39.340368,119.993506 L28.595671,155.357143 L67.140368,155.357143 Z" id="Shape"></path>
                </g>
                <g id="Fill-391-+-Fill-392" transform="translate(138.311688, 134.324817)" sketch:type="MSShapeGroup">
                    <path d="M43.9422078,5.27922078 L51.5230519,0 L0,0 L0,5.27922078 L43.9422078,5.27922078" id="Fill-391"></path>
                    <path d="M0,5.84415584 L0,11.1233766 L51.5230519,11.1233766 L44.4808442,5.84415584 L0,5.84415584" id="Fill-392"></path>
                </g>
                <g id="Fill-389-+-Fill-390" transform="translate(0.000000, 134.324817)" sketch:type="MSShapeGroup">
                    <path d="M0,10.9090909 L51.5220779,10.9090909 L51.5220779,5.84415584 L7.28376623,5.84415584 L0,10.9090909" id="Fill-389"></path>
                    <path d="M0,0 L7.31688312,5.48376623 L51.5220779,5.48376623 L51.5220779,0 L0,0" id="Fill-390"></path>
                </g>
                <text id="T" sketch:type="MSTextLayer" font-family="Futura" font-size="80" font-style="condensed" font-weight="686">
                    <tspan x="9.74025974" y="117.987013">T</tspan>
                </text>
                <text id="G" sketch:type="MSTextLayer" font-family="Futura" font-size="80" font-style="condensed" font-weight="686">
                    <tspan x="138.311688" y="117.987013">G</tspan>
                </text>
            </g>
        </g>
    </g>
</svg>